<svg width="30" height="26" viewBox="0 0 30 26" fill="none" xmlns="http://www.w3.org/2000/svg">
<path id="Vector" d="M26.333 3.21859H3.66634V23.0519L16.8304 9.88612C17.3836 9.33285 18.2805 9.33279 18.8339 9.886L26.333 17.4V3.21859ZM0.833008 1.79257C0.833008 1.01533 1.47803 0.385254 2.23806 0.385254H27.7613C28.5373 0.385254 29.1663 1.0156 29.1663 1.79257V24.4779C29.1663 25.2551 28.5213 25.8853 27.7613 25.8853H2.23806C1.46208 25.8853 0.833008 25.255 0.833008 24.4779V1.79257ZM9.33301 11.7186C7.7682 11.7186 6.49967 10.4501 6.49967 8.88525C6.49967 7.32045 7.7682 6.05192 9.33301 6.05192C10.8978 6.05192 12.1663 7.32045 12.1663 8.88525C12.1663 10.4501 10.8978 11.7186 9.33301 11.7186Z" fill="white"/>
</svg>
